# Blender v3.0.0 OBJ File: ''
# www.blender.org
o Cube.054_Cube.078
v -3.000002 0.000000 -3.499999
v -3.000002 9.000000 -3.499999
v 2.999998 0.000000 -3.500001
v 2.999998 9.000000 -3.500001
v -2.999998 0.000000 3.500001
v -2.999998 9.000000 3.500001
v 3.000002 0.000000 3.499999
v 3.000002 9.000000 3.499999
v -3.500001 0.000000 -2.999998
v -3.500001 9.000000 -2.999998
v -3.499999 0.000000 3.000002
v -3.499999 9.000000 3.000002
v 3.500001 0.000000 2.999998
v 3.500001 9.000000 2.999998
v 3.499999 0.000000 -3.000002
v 3.499999 9.000000 -3.000002
v 2.250002 2.750000 3.499999
v 2.250002 3.000000 3.499999
v 3.500001 2.750000 2.249998
v 3.500001 3.000000 2.249998
v 3.000002 2.750000 3.499999
v 3.000002 3.000000 3.499999
v 3.500001 2.750000 2.999998
v 3.500001 3.000000 2.999998
v 2.250002 5.750000 3.499999
v 2.250002 6.000000 3.499999
v 3.500001 5.750000 2.249998
v 3.500001 6.000000 2.249998
v 3.000002 5.750000 3.499999
v 3.000002 6.000000 3.499999
v 3.500001 5.750000 2.999998
v 3.500001 6.000000 2.999998
v -3.499999 2.750000 2.250000
v -3.499999 3.000000 2.250000
v -2.249998 2.750000 3.499999
v -2.249998 3.000000 3.499999
v -3.499999 2.750000 3.000000
v -3.499999 3.000000 3.000000
v -2.999998 2.750000 3.500000
v -2.999998 3.000000 3.500000
v -3.499999 5.750000 2.250000
v -3.499999 6.000000 2.250000
v -2.249998 5.750000 3.499999
v -2.249998 6.000000 3.499999
v -3.499999 5.750000 3.000000
v -3.499999 6.000000 3.000000
v -2.999998 5.750000 3.500000
v -2.999998 6.000000 3.500000
v -2.250000 5.750000 -3.500000
v -2.250000 6.000000 -3.500000
v -3.500000 5.750000 -2.250000
v -3.500000 6.000000 -2.250000
v -3.000000 5.750000 -3.500000
v -3.000000 6.000000 -3.500000
v -3.500000 5.750000 -3.000000
v -3.500000 6.000000 -3.000000
v -2.250000 2.750000 -3.500000
v -2.250000 3.000000 -3.500000
v -3.500000 2.750000 -2.250000
v -3.500000 3.000000 -2.250000
v -3.000000 2.750000 -3.500000
v -3.000000 3.000000 -3.500000
v -3.500000 2.750000 -3.000000
v -3.500000 3.000000 -3.000000
v 3.500000 5.750000 -2.250000
v 3.500000 6.000000 -2.250000
v 2.250000 5.750000 -3.500000
v 2.250000 6.000000 -3.500000
v 3.500000 5.750000 -3.000000
v 3.500000 6.000000 -3.000000
v 3.000000 5.750000 -3.500000
v 3.000000 6.000000 -3.500000
v 3.500000 2.750000 -2.250000
v 3.500000 3.000000 -2.250000
v 2.250000 2.750000 -3.500000
v 2.250000 3.000000 -3.500000
v 3.500000 2.750000 -3.000000
v 3.500000 3.000000 -3.000000
v 3.000000 2.750000 -3.500000
v 3.000000 3.000000 -3.500000
v -2.875000 5.750000 -2.875000
v -2.875000 6.000000 -2.875000
v -2.874999 5.750000 2.875000
v -2.874999 6.000000 2.875000
v 2.875000 5.750000 -2.875000
v 2.875000 6.000000 -2.875000
v -2.874999 2.750000 2.875000
v -2.874999 3.000000 2.875000
v -2.875000 2.750000 -2.875000
v -2.875000 3.000000 -2.875000
v 2.875000 2.750000 -2.875000
v 2.875000 3.000000 -2.875000
vt 0.625000 0.375000
vt 0.375000 0.500000
vt 0.375000 0.375000
vt 0.625000 0.875000
vt 0.375000 1.000000
vt 0.375000 0.875000
vt 0.250000 0.750000
vt 0.125000 0.750000
vt 0.687500 0.750000
vt 0.625000 0.750000
vt 0.875000 0.500000
vt 0.375000 0.812500
vt 0.375000 0.750000
vt 0.625000 0.250000
vt 0.375000 0.312500
vt 0.375000 0.250000
vt 0.625000 0.000000
vt 0.375000 0.250000
vt 0.375000 0.000000
vt 0.375000 0.500000
vt 0.125000 0.750000
vt 0.125000 0.500000
vt 0.875000 0.500000
vt 0.625000 0.750000
vt 0.625000 0.500000
vt 0.625000 0.000000
vt 0.375000 0.250000
vt 0.375000 0.000000
vt 0.375000 0.500000
vt 0.125000 0.750000
vt 0.125000 0.500000
vt 0.875000 0.500000
vt 0.625000 0.750000
vt 0.625000 0.500000
vt 0.625000 0.125000
vt 0.375000 0.250000
vt 0.375000 0.125000
vt 0.375000 0.750000
vt 0.125000 0.750000
vt 0.125000 0.625000
vt 0.875000 0.625000
vt 0.875000 0.750000
vt 0.625000 0.750000
vt 0.625000 0.125000
vt 0.375000 0.250000
vt 0.375000 0.125000
vt 0.375000 0.750000
vt 0.125000 0.750000
vt 0.125000 0.625000
vt 0.875000 0.625000
vt 0.875000 0.750000
vt 0.625000 0.750000
vt 0.375000 0.750000
vt 0.125000 0.750000
vt 0.125000 0.625000
vt 0.875000 0.625000
vt 0.875000 0.750000
vt 0.625000 0.750000
vt 0.125000 0.500000
vt 0.125000 0.625000
vt 0.375000 0.750000
vt 0.125000 0.750000
vt 0.875000 0.625000
vt 0.875000 0.750000
vt 0.625000 0.750000
vt 0.375000 0.750000
vt 0.125000 0.750000
vt 0.125000 0.625000
vt 0.875000 0.625000
vt 0.875000 0.750000
vt 0.625000 0.750000
vt 0.375000 0.125000
vt 0.125000 0.500000
vt 0.375000 0.125000
vt 0.375000 0.750000
vt 0.125000 0.750000
vt 0.125000 0.625000
vt 0.875000 0.625000
vt 0.875000 0.750000
vt 0.625000 0.750000
vt 0.625000 0.125000
vt 0.375000 0.125000
vt 0.625000 0.125000
vt 0.625000 0.000000
vt 0.375000 0.000000
vt 0.375000 0.125000
vt 0.875000 0.500000
vt 0.125000 0.500000
vt 0.125000 0.500000
vt 0.625000 0.000000
vt 0.375000 0.000000
vt 0.875000 0.500000
vt 0.625000 0.125000
vt 0.875000 0.500000
vt 0.625000 0.812500
vt 0.625000 0.500000
vt 0.625000 1.000000
vt 0.125000 0.500000
vt 0.187500 0.500000
vt 0.250000 0.500000
vt 0.312500 0.750000
vt 0.750000 0.500000
vt 0.812500 0.500000
vt 0.875000 0.750000
vt 0.750000 0.750000
vt 0.625000 0.312500
vt 0.625000 0.250000
vt 0.375000 0.750000
vt 0.875000 0.750000
vt 0.625000 0.250000
vt 0.375000 0.750000
vt 0.875000 0.750000
vt 0.625000 0.250000
vt 0.125000 0.500000
vt 0.375000 0.500000
vt 0.625000 0.500000
vt 0.875000 0.500000
vt 0.625000 0.250000
vt 0.125000 0.500000
vt 0.375000 0.500000
vt 0.625000 0.500000
vt 0.875000 0.500000
vt 0.375000 0.500000
vt 0.625000 0.500000
vt 0.375000 0.500000
vt 0.625000 0.500000
vt 0.375000 0.500000
vt 0.625000 0.500000
vt 0.875000 0.500000
vt 0.375000 0.500000
vt 0.625000 0.500000
vt 0.625000 0.125000
vn 0.7071 0.0000 0.7071
vn -0.7071 0.0000 -0.7071
vn 0.0000 -1.0000 0.0000
vn 0.0000 1.0000 0.0000
vn -0.7071 0.0000 0.7071
vn 0.7071 0.0000 -0.7071
vn -0.0000 0.0000 1.0000
vn 1.0000 0.0000 -0.0000
vn -1.0000 0.0000 0.0000
vn -0.0000 0.0000 -1.0000
s off
f 14/1/1 7/2/1 13/3/1
f 10/4/2 1/5/2 9/6/2
f 9/7/3 1/8/3 7/2/3
f 12/9/4 6/10/4 4/11/4
f 6/10/5 11/12/5 5/13/5
f 4/14/6 15/15/6 3/16/6
f 18/17/2 19/18/2 17/19/2
f 23/20/3 17/21/3 19/22/3
f 20/23/4 22/24/4 24/25/4
f 26/26/2 27/27/2 25/28/2
f 31/29/3 25/30/3 27/31/3
f 28/32/4 30/33/4 32/34/4
f 88/35/6 35/36/6 87/37/6
f 37/38/3 33/39/3 87/40/3
f 88/41/4 34/42/4 38/43/4
f 84/44/6 43/45/6 83/46/6
f 45/47/3 41/48/3 83/49/3
f 84/50/4 42/51/4 46/52/4
f 53/53/3 49/54/3 81/55/3
f 82/56/4 50/57/4 54/58/4
f 87/40/3 59/59/3 89/60/3
f 61/61/3 57/62/3 89/60/3
f 90/63/4 58/64/4 62/65/4
f 69/66/3 65/67/3 85/68/3
f 86/69/4 66/70/4 70/71/4
f 89/72/3 75/73/3 91/74/3
f 77/75/3 73/76/3 91/77/3
f 92/78/4 74/79/4 78/80/4
f 82/81/7 85/82/7 86/83/7
f 66/84/5 85/82/5 65/85/5
f 82/81/8 83/46/8 81/86/8
f 86/69/4 50/57/4 82/56/4
f 52/87/4 84/44/4 82/81/4
f 83/46/3 51/88/3 81/86/3
f 81/86/3 67/89/3 85/82/3
f 74/90/5 91/74/5 73/91/5
f 90/63/4 76/92/4 58/64/4
f 91/74/7 90/93/7 89/72/7
f 60/94/4 88/41/4 90/63/4
f 89/72/8 88/35/8 87/37/8
f 10/4/9 11/12/9 12/95/9
f 1/5/10 4/14/10 3/16/10
f 14/1/1 8/96/1 7/2/1
f 10/4/2 2/97/2 1/5/2
f 1/8/3 3/98/3 15/99/3
f 15/99/3 13/100/3 1/8/3
f 13/100/3 7/2/3 1/8/3
f 7/2/3 5/13/3 11/101/3
f 11/101/3 9/7/3 7/2/3
f 6/10/4 8/96/4 14/102/4
f 14/102/4 16/103/4 6/10/4
f 16/103/4 4/11/4 6/10/4
f 4/11/4 2/104/4 10/105/4
f 10/105/4 12/9/4 4/11/4
f 6/10/5 12/95/5 11/12/5
f 4/14/6 16/106/6 15/15/6
f 18/17/2 20/107/2 19/18/2
f 23/20/3 21/108/3 17/21/3
f 20/23/4 18/109/4 22/24/4
f 26/26/2 28/110/2 27/27/2
f 31/29/3 29/111/3 25/30/3
f 28/32/4 26/112/4 30/33/4
f 88/35/6 36/113/6 35/36/6
f 87/40/3 35/114/3 39/115/3
f 39/115/3 37/38/3 87/40/3
f 38/43/4 40/116/4 88/41/4
f 40/116/4 36/117/4 88/41/4
f 84/44/6 44/118/6 43/45/6
f 83/49/3 43/119/3 47/120/3
f 47/120/3 45/47/3 83/49/3
f 46/52/4 48/121/4 84/50/4
f 48/121/4 44/122/4 84/50/4
f 81/55/3 51/88/3 55/123/3
f 55/123/3 53/53/3 81/55/3
f 54/58/4 56/124/4 82/56/4
f 56/124/4 52/87/4 82/56/4
f 87/40/3 33/39/3 59/59/3
f 89/60/3 59/59/3 63/125/3
f 63/125/3 61/61/3 89/60/3
f 62/65/4 64/126/4 90/63/4
f 64/126/4 60/94/4 90/63/4
f 85/68/3 67/89/3 71/127/3
f 71/127/3 69/66/3 85/68/3
f 70/71/4 72/128/4 86/69/4
f 72/128/4 68/129/4 86/69/4
f 89/72/3 57/62/3 75/73/3
f 91/77/3 75/73/3 79/130/3
f 79/130/3 77/75/3 91/77/3
f 78/80/4 80/131/4 92/78/4
f 80/131/4 76/92/4 92/78/4
f 82/81/7 81/86/7 85/82/7
f 66/84/5 86/83/5 85/82/5
f 82/81/8 84/44/8 83/46/8
f 86/69/4 68/129/4 50/57/4
f 52/87/4 42/51/4 84/44/4
f 83/46/3 41/48/3 51/88/3
f 81/86/3 49/54/3 67/89/3
f 74/90/5 92/132/5 91/74/5
f 90/63/4 92/132/4 76/92/4
f 91/74/7 92/132/7 90/93/7
f 60/94/4 34/42/4 88/41/4
f 89/72/8 90/63/8 88/35/8
f 10/4/9 9/7/9 11/12/9
f 1/5/10 2/104/10 4/14/10
