# Blender v3.0.0 OBJ File: 'FIN2.blend'
# www.blender.org
mtllib LightBulbs.mtl
o Plane.010_Plane.025
v 1.509808 7.650000 2.500000
v 1.400000 7.759808 2.500000
v 0.990193 7.650000 2.500000
v 1.100000 7.240192 2.500000
v 1.400000 7.240192 2.500000
v 1.550000 7.500000 2.500000
v 1.250000 7.800000 2.500000
v 1.100000 7.759808 2.500000
v 0.950000 7.500000 2.500000
v 0.990192 7.350000 2.500000
v 1.250000 7.200000 2.500000
v 1.509808 7.350000 2.500000
v 1.394199 7.583253 2.750000
v 1.333254 7.644199 2.750000
v 1.105801 7.583253 2.750000
v 1.166746 7.355801 2.750000
v 1.333253 7.355801 2.750000
v 1.416507 7.500000 2.750000
v 1.250000 7.666507 2.750000
v 1.166747 7.644199 2.750000
v 1.083493 7.500000 2.750000
v 1.105801 7.416747 2.750000
v 1.250000 7.333493 2.750000
v 1.394199 7.416746 2.750000
v 1.363646 7.565613 3.000000
v 1.315613 7.613646 3.000000
v 1.136355 7.565613 3.000000
v 1.184387 7.386354 3.000000
v 1.315613 7.386354 3.000000
v 1.381227 7.500000 3.000000
v 1.250000 7.631227 3.000000
v 1.184387 7.613646 3.000000
v 1.118773 7.500000 3.000000
v 1.136354 7.434387 3.000000
v 1.250000 7.368773 3.000000
v 1.363646 7.434386 3.000000
v 1.509808 7.650000 -2.500000
v 1.400000 7.759808 -2.500000
v 0.990192 7.650000 -2.500000
v 1.100000 7.240192 -2.500000
v 1.400000 7.240192 -2.500000
v 1.550000 7.500000 -2.500000
v 1.250000 7.800000 -2.500000
v 1.100000 7.759808 -2.500000
v 0.950000 7.500000 -2.500000
v 0.990192 7.350000 -2.500000
v 1.250000 7.200000 -2.500000
v 1.509807 7.350000 -2.500000
v 1.394199 7.583253 -2.750000
v 1.333253 7.644199 -2.750000
v 1.105801 7.583253 -2.750000
v 1.166746 7.355801 -2.750000
v 1.333253 7.355801 -2.750000
v 1.416507 7.500000 -2.750000
v 1.250000 7.666507 -2.750000
v 1.166746 7.644199 -2.750000
v 1.083493 7.500000 -2.750000
v 1.105801 7.416747 -2.750000
v 1.250000 7.333493 -2.750000
v 1.394199 7.416746 -2.750000
v 1.363645 7.565613 -3.000000
v 1.315613 7.613646 -3.000000
v 1.136354 7.565613 -3.000000
v 1.184386 7.386354 -3.000000
v 1.315613 7.386354 -3.000000
v 1.381226 7.500000 -3.000000
v 1.250000 7.631227 -3.000000
v 1.184387 7.613646 -3.000000
v 1.118773 7.500000 -3.000000
v 1.136354 7.434387 -3.000000
v 1.250000 7.368773 -3.000000
v 1.363645 7.434386 -3.000000
v 0.259808 7.650000 2.500000
v 0.150000 7.759808 2.500000
v -0.259807 7.650000 2.500000
v -0.150000 7.240192 2.500000
v 0.150000 7.240192 2.500000
v 0.300000 7.500000 2.500000
v 0.000000 7.800000 2.500000
v -0.150000 7.759808 2.500000
v -0.300000 7.500000 2.500000
v -0.259808 7.350000 2.500000
v -0.000000 7.200000 2.500000
v 0.259808 7.350000 2.500000
v 0.144199 7.583253 2.750000
v 0.083254 7.644199 2.750000
v -0.144199 7.583253 2.750000
v -0.083254 7.355801 2.750000
v 0.083253 7.355801 2.750000
v 0.166507 7.500000 2.750000
v 0.000000 7.666507 2.750000
v -0.083253 7.644199 2.750000
v -0.166507 7.500000 2.750000
v -0.144199 7.416747 2.750000
v -0.000000 7.333493 2.750000
v 0.144199 7.416746 2.750000
v 0.113646 7.565613 3.000000
v 0.065613 7.613646 3.000000
v -0.113645 7.565613 3.000000
v -0.065613 7.386354 3.000000
v 0.065613 7.386354 3.000000
v 0.131227 7.500000 3.000000
v 0.000000 7.631227 3.000000
v -0.065613 7.613646 3.000000
v -0.131227 7.500000 3.000000
v -0.113646 7.434387 3.000000
v 0.000000 7.368773 3.000000
v 0.113646 7.434386 3.000000
v 0.259808 7.650000 -2.500000
v 0.150000 7.759808 -2.500000
v -0.259808 7.650000 -2.500000
v -0.150000 7.240192 -2.500000
v 0.150000 7.240192 -2.500000
v 0.300000 7.500000 -2.500000
v 0.000000 7.800000 -2.500000
v -0.150000 7.759808 -2.500000
v -0.300000 7.500000 -2.500000
v -0.259808 7.350000 -2.500000
v -0.000000 7.200000 -2.500000
v 0.259807 7.350000 -2.500000
v 0.144199 7.583253 -2.750000
v 0.083253 7.644199 -2.750000
v -0.144199 7.583253 -2.750000
v -0.083254 7.355801 -2.750000
v 0.083253 7.355801 -2.750000
v 0.166507 7.500000 -2.750000
v -0.000000 7.666507 -2.750000
v -0.083254 7.644199 -2.750000
v -0.166507 7.500000 -2.750000
v -0.144199 7.416747 -2.750000
v -0.000000 7.333493 -2.750000
v 0.144199 7.416746 -2.750000
v 0.113645 7.565613 -3.000000
v 0.065613 7.613646 -3.000000
v -0.113646 7.565613 -3.000000
v -0.065614 7.386354 -3.000000
v 0.065613 7.386354 -3.000000
v 0.131226 7.500000 -3.000000
v -0.000000 7.631227 -3.000000
v -0.065613 7.613646 -3.000000
v -0.131227 7.500000 -3.000000
v -0.113646 7.434387 -3.000000
v -0.000000 7.368773 -3.000000
v 0.113645 7.434386 -3.000000
v -0.990192 7.650000 2.500000
v -1.100000 7.759808 2.500000
v -1.509807 7.650000 2.500000
v -1.400000 7.240192 2.500000
v -1.100000 7.240192 2.500000
v -0.950000 7.500000 2.500000
v -1.250000 7.800000 2.500000
v -1.400000 7.759808 2.500000
v -1.550000 7.500000 2.500000
v -1.509808 7.350000 2.500000
v -1.250000 7.200000 2.500000
v -0.990192 7.350000 2.500000
v -1.105801 7.583253 2.750000
v -1.166746 7.644199 2.750000
v -1.394199 7.583253 2.750000
v -1.333254 7.355801 2.750000
v -1.166747 7.355801 2.750000
v -1.083493 7.500000 2.750000
v -1.250000 7.666507 2.750000
v -1.333253 7.644199 2.750000
v -1.416507 7.500000 2.750000
v -1.394199 7.416747 2.750000
v -1.250000 7.333493 2.750000
v -1.105801 7.416746 2.750000
v -1.136354 7.565613 3.000000
v -1.184387 7.613646 3.000000
v -1.363645 7.565613 3.000000
v -1.315613 7.386354 3.000000
v -1.184387 7.386354 3.000000
v -1.118773 7.500000 3.000000
v -1.250000 7.631227 3.000000
v -1.315613 7.613646 3.000000
v -1.381226 7.500000 3.000000
v -1.363646 7.434387 3.000000
v -1.250000 7.368773 3.000000
v -1.136354 7.434386 3.000000
v -0.990192 7.650000 -2.500000
v -1.100000 7.759808 -2.500000
v -1.509808 7.650000 -2.500000
v -1.400000 7.240192 -2.500000
v -1.100000 7.240192 -2.500000
v -0.950000 7.500000 -2.500000
v -1.250000 7.800000 -2.500000
v -1.400000 7.759808 -2.500000
v -1.550000 7.500000 -2.500000
v -1.509808 7.350000 -2.500000
v -1.250000 7.200000 -2.500000
v -0.990193 7.350000 -2.500000
v -1.105801 7.583253 -2.750000
v -1.166747 7.644199 -2.750000
v -1.394199 7.583253 -2.750000
v -1.333254 7.355801 -2.750000
v -1.166747 7.355801 -2.750000
v -1.083493 7.500000 -2.750000
v -1.250000 7.666507 -2.750000
v -1.333254 7.644199 -2.750000
v -1.416507 7.500000 -2.750000
v -1.394199 7.416747 -2.750000
v -1.250000 7.333493 -2.750000
v -1.105801 7.416746 -2.750000
v -1.136355 7.565613 -3.000000
v -1.184387 7.613646 -3.000000
v -1.363646 7.565613 -3.000000
v -1.315614 7.386354 -3.000000
v -1.184387 7.386354 -3.000000
v -1.118774 7.500000 -3.000000
v -1.250000 7.631227 -3.000000
v -1.315613 7.613646 -3.000000
v -1.381227 7.500000 -3.000000
v -1.363646 7.434387 -3.000000
v -1.250000 7.368773 -3.000000
v -1.136355 7.434386 -3.000000
vt 0.000000 0.500000
vt 0.000000 0.583333
vt 0.000000 0.500000
vt 0.000000 0.666667
vt 0.000000 0.750000
vt 0.000000 0.666667
vt 0.000000 0.833333
vt 0.000000 0.916667
vt 0.000000 0.833333
vt 0.000000 0.416667
vt 0.000000 0.333333
vt 0.000000 0.333333
vt 0.000000 0.083333
vt 0.000000 0.000000
vt 0.000000 0.000000
vt 0.000000 0.583333
vt 0.000000 0.166667
vt 0.000000 0.083333
vt 0.000000 0.250000
vt 0.000000 0.250000
vt 0.000000 0.166667
vt 0.000000 0.916667
vt 0.000000 1.000000
vt 0.000000 0.750000
vt 0.000000 0.750000
vt 0.000000 0.666667
vt 0.000000 0.416667
vt 0.000000 0.333333
vt 0.000000 0.416667
vt 0.000000 0.833333
vt 0.000000 0.916667
vt 0.000000 0.500000
vt 0.000000 0.083333
vt 0.000000 0.000000
vt 0.000000 0.583333
vt 0.000000 0.250000
vt 0.000000 0.166667
vt 0.000000 0.500000
vt 0.000000 0.583333
vt 0.000000 0.583333
vt 0.000000 0.666667
vt 0.000000 0.750000
vt 0.000000 0.666667
vt 0.000000 0.833333
vt 0.000000 0.916667
vt 0.000000 0.916667
vt 0.000000 0.333333
vt 0.000000 0.416667
vt 0.000000 0.333333
vt 0.000000 0.000000
vt 0.000000 0.083333
vt 0.000000 0.000000
vt 0.000000 0.666667
vt 0.000000 0.083333
vt 0.000000 0.166667
vt 0.000000 0.250000
vt 0.000000 0.166667
vt 0.000000 1.000000
vt 0.000000 1.000000
vt 0.000000 0.750000
vt 0.000000 0.833333
vt 0.000000 0.500000
vt 0.000000 0.333333
vt 0.000000 0.416667
vt 0.000000 0.416667
vt 0.000000 0.750000
vt 0.000000 0.916667
vt 0.000000 0.500000
vt 0.000000 0.083333
vt 0.000000 0.833333
vt 0.000000 0.000000
vt 0.000000 0.250000
vt 0.000000 0.166667
vt 0.000000 1.000000
vt 0.000000 0.500000
vt 0.000000 0.583333
vt 0.000000 0.500000
vt 0.000000 0.750000
vt 0.000000 0.666667
vt 0.000000 0.666667
vt 0.000000 0.833333
vt 0.000000 0.916667
vt 0.000000 0.833333
vt 0.000000 0.416667
vt 0.000000 0.333333
vt 0.000000 0.333333
vt 0.000000 0.083333
vt 0.000000 0.000000
vt 0.000000 0.000000
vt 0.000000 0.583333
vt 0.000000 0.166667
vt 0.000000 0.083333
vt 0.000000 0.250000
vt 0.000000 0.250000
vt 0.000000 0.166667
vt 0.000000 0.916667
vt 0.000000 1.000000
vt 0.000000 0.750000
vt 0.000000 0.666667
vt 0.000000 0.416667
vt 0.000000 0.416667
vt 0.000000 0.333333
vt 0.000000 0.750000
vt 0.000000 0.916667
vt 0.000000 0.500000
vt 0.000000 0.166667
vt 0.000000 0.083333
vt 0.000000 0.833333
vt 0.000000 0.000000
vt 0.000000 0.583333
vt 0.000000 0.250000
vt 0.000000 0.500000
vt 0.000000 0.583333
vt 0.000000 0.583333
vt 0.000000 0.666667
vt 0.000000 0.750000
vt 0.000000 0.666667
vt 0.000000 0.833333
vt 0.000000 0.916667
vt 0.000000 0.916667
vt 0.000000 0.333333
vt 0.000000 0.416667
vt 0.000000 0.333333
vt 0.000000 0.000000
vt 0.000000 0.083333
vt 0.000000 0.000000
vt 0.000000 0.666667
vt 0.000000 0.166667
vt 0.000000 0.166667
vt 0.000000 0.250000
vt 0.000000 1.000000
vt 0.000000 1.000000
vt 0.000000 0.750000
vt 0.000000 0.833333
vt 0.000000 0.500000
vt 0.000000 0.416667
vt 0.000000 0.416667
vt 0.000000 0.750000
vt 0.000000 0.916667
vt 0.000000 0.500000
vt 0.000000 0.083333
vt 0.000000 0.166667
vt 0.000000 0.833333
vt 0.000000 0.083333
vt 0.000000 0.250000
vt 0.000000 0.250000
vt 0.000000 1.000000
vt 0.000000 0.583333
vt 0.000000 0.500000
vt 0.000000 0.500000
vt 0.000000 0.666667
vt 0.000000 0.750000
vt 0.000000 0.666667
vt 0.000000 0.916667
vt 0.000000 0.833333
vt 0.000000 0.833333
vt 0.000000 0.416667
vt 0.000000 0.333333
vt 0.000000 0.333333
vt 0.000000 0.083333
vt 0.000000 0.000000
vt 0.000000 0.000000
vt 0.000000 0.666667
vt 0.000000 0.583333
vt 0.000000 0.166667
vt 0.000000 0.083333
vt 0.000000 0.250000
vt 0.000000 0.250000
vt 0.000000 0.166667
vt 0.000000 1.000000
vt 0.000000 0.916667
vt 0.000000 0.750000
vt 0.000000 0.750000
vt 0.000000 0.416667
vt 0.000000 0.333333
vt 0.000000 0.416667
vt 0.000000 0.833333
vt 0.000000 0.916667
vt 0.000000 0.583333
vt 0.000000 0.500000
vt 0.000000 0.166667
vt 0.000000 0.083333
vt 0.000000 0.000000
vt 0.000000 0.250000
vt 0.000000 0.500000
vt 0.000000 0.583333
vt 0.000000 0.500000
vt 0.000000 0.666667
vt 0.000000 0.750000
vt 0.000000 0.750000
vt 0.000000 0.833333
vt 0.000000 0.916667
vt 0.000000 0.833333
vt 0.000000 0.333333
vt 0.000000 0.416667
vt 0.000000 0.333333
vt 0.000000 0.000000
vt 0.000000 0.083333
vt 0.000000 0.000000
vt 0.000000 0.666667
vt 0.000000 0.166667
vt 0.000000 0.166667
vt 0.000000 0.250000
vt 0.000000 0.250000
vt 0.000000 1.000000
vt 0.000000 1.000000
vt 0.000000 0.750000
vt 0.000000 0.416667
vt 0.000000 0.333333
vt 0.000000 0.500000
vt 0.000000 0.833333
vt 0.000000 0.916667
vt 0.000000 0.916667
vt 0.000000 0.583333
vt 0.000000 0.583333
vt 0.000000 0.083333
vt 0.000000 0.166667
vt 0.000000 0.083333
vt 0.000000 0.666667
vt 0.000000 1.000000
vt 0.000000 1.000000
vt 0.000000 1.000000
vt 0.000000 0.583333
vt 0.000000 0.250000
vt 0.000000 1.000000
vt 0.000000 0.333333
vt 0.000000 1.000000
vt 0.000000 0.583333
vt 0.000000 0.000000
vt 0.000000 1.000000
vt 0.000000 0.416667
vt 0.000000 1.000000
vt 0.000000 0.000000
vt 0.000000 0.250000
vn -0.8420 -0.4861 0.2338
vn -0.4739 -0.8208 0.3189
vn -0.8208 -0.4739 0.3189
vn 0.0000 -0.9478 0.3189
vn 0.4951 -0.8575 0.1397
vn 0.0000 -0.9902 0.1397
vn 0.8420 -0.4861 0.2338
vn 0.9478 0.0000 0.3189
vn 0.8208 -0.4739 0.3189
vn -0.9723 0.0000 0.2338
vn -0.8208 0.4739 0.3189
vn -0.8420 0.4861 0.2338
vn 0.4861 0.8420 0.2338
vn 0.8208 0.4739 0.3189
vn 0.8420 0.4861 0.2338
vn -0.4861 -0.8420 0.2338
vn 0.0000 0.9478 0.3189
vn 0.4739 0.8208 0.3189
vn -0.4861 0.8420 0.2338
vn -0.4739 0.8208 0.3189
vn 0.0000 0.9723 0.2338
vn 0.9723 0.0000 0.2338
vn 0.4861 -0.8420 0.2338
vn 0.4739 -0.8208 0.3189
vn 0.0000 -0.9723 0.2338
vn -0.9478 0.0000 0.3189
vn -0.8575 0.4951 0.1397
vn -0.9902 0.0000 0.1397
vn 0.8575 -0.4951 0.1397
vn 0.9902 0.0000 0.1397
vn -0.8575 -0.4951 0.1397
vn 0.4951 0.8575 0.1397
vn 0.8575 0.4951 0.1397
vn -0.4951 -0.8575 0.1397
vn -0.4951 0.8575 0.1397
vn 0.0000 0.9902 0.1397
vn -0.8420 -0.4861 -0.2338
vn -0.4739 -0.8208 -0.3189
vn -0.4861 -0.8420 -0.2338
vn 0.0000 -0.9902 -0.1397
vn 0.4739 -0.8208 -0.3189
vn 0.0000 -0.9478 -0.3189
vn 0.8420 -0.4861 -0.2338
vn 0.9478 0.0000 -0.3189
vn 0.9723 0.0000 -0.2338
vn -0.8208 0.4739 -0.3189
vn -0.9723 0.0000 -0.2338
vn -0.8420 0.4861 -0.2338
vn 0.8208 0.4739 -0.3189
vn 0.4861 0.8420 -0.2338
vn 0.8420 0.4861 -0.2338
vn 0.0000 -0.9723 -0.2338
vn 0.4739 0.8208 -0.3189
vn 0.0000 0.9723 -0.2338
vn -0.4861 0.8420 -0.2338
vn 0.0000 0.9478 -0.3189
vn 0.4861 -0.8420 -0.2338
vn 0.8208 -0.4739 -0.3189
vn -0.8208 -0.4739 -0.3189
vn -0.8575 0.4951 -0.1397
vn -0.9478 0.0000 -0.3189
vn -0.9902 0.0000 -0.1397
vn 0.4951 -0.8575 -0.1397
vn 0.9902 0.0000 -0.1397
vn -0.8575 -0.4951 -0.1397
vn 0.4951 0.8575 -0.1397
vn 0.8575 -0.4951 -0.1397
vn 0.8575 0.4951 -0.1397
vn -0.4739 0.8208 -0.3189
vn 0.0000 0.9902 -0.1397
vn -0.4951 0.8575 -0.1397
vn -0.4951 -0.8575 -0.1397
usemtl None
s 1
f 10/1/1 16/2/2 22/3/3
f 23/4/4 29/5/5 35/6/6
f 12/7/7 18/8/8 24/9/9
f 9/10/10 15/11/11 3/12/12
f 2/13/13 13/14/14 1/15/15
f 4/16/16 23/4/4 16/2/2
f 2/13/13 19/17/17 14/18/18
f 8/19/19 15/11/11 20/20/20
f 8/19/19 19/17/17 7/21/21
f 6/22/22 13/23/14 18/8/8
f 5/24/23 24/9/9 17/25/24
f 11/26/25 17/25/24 23/4/4
f 9/10/10 22/3/3 21/27/26
f 21/27/26 27/28/27 15/11/11
f 22/3/3 33/29/28 21/27/26
f 17/25/24 36/30/29 29/5/5
f 13/23/14 30/31/30 18/8/8
f 16/2/2 34/32/31 22/3/3
f 19/17/17 26/33/32 14/18/18
f 18/8/8 36/30/29 24/9/9
f 14/18/18 25/34/33 13/14/14
f 16/2/2 35/6/6 28/35/34
f 20/20/20 27/28/27 32/36/35
f 20/20/20 31/37/36 19/17/17
f 46/38/37 52/39/38 40/40/39
f 71/41/40 53/42/41 59/43/42
f 48/44/43 54/45/44 42/46/45
f 51/47/46 45/48/47 39/49/48
f 49/50/49 38/51/50 37/52/51
f 52/39/38 47/53/52 40/40/39
f 50/54/53 43/55/54 38/51/50
f 44/56/55 51/47/46 39/49/48
f 55/57/56 44/56/55 43/55/54
f 42/46/45 49/58/49 37/59/51
f 41/60/57 60/61/58 48/44/43
f 47/53/52 53/42/41 41/60/57
f 45/48/47 58/62/59 46/38/37
f 63/63/60 57/64/61 51/47/46
f 69/65/62 58/62/59 57/64/61
f 65/66/63 60/61/58 53/42/41
f 66/67/64 49/58/49 54/45/44
f 70/68/65 52/39/38 58/62/59
f 62/69/66 55/57/56 50/54/53
f 72/70/67 54/45/44 60/61/58
f 61/71/68 50/54/53 49/50/49
f 52/39/38 71/41/40 59/43/42
f 56/72/69 63/63/60 51/47/46
f 67/73/70 56/72/69 55/57/56
f 42/46/45 1/74/15 6/22/22
f 5/24/23 48/44/43 12/7/7
f 4/16/16 47/53/52 11/26/25
f 9/10/10 46/38/37 10/1/1
f 8/19/19 39/49/48 3/12/12
f 2/13/13 43/55/54 7/21/21
f 1/74/15 38/51/50 2/13/13
f 12/7/7 42/46/45 6/22/22
f 7/21/21 44/56/55 8/19/19
f 3/12/12 45/48/47 9/10/10
f 10/1/1 40/40/39 4/16/16
f 11/26/25 41/60/57 5/24/23
f 82/75/1 88/76/2 94/77/3
f 89/78/24 107/79/6 95/80/4
f 84/81/7 90/82/8 96/83/9
f 81/84/10 87/85/11 75/86/12
f 74/87/13 85/88/14 73/89/15
f 76/90/16 95/80/4 88/76/2
f 74/87/13 91/91/17 86/92/18
f 80/93/19 87/85/11 92/94/20
f 80/93/19 91/91/17 79/95/21
f 78/96/22 85/97/14 90/82/8
f 77/98/23 96/83/9 89/78/24
f 77/98/23 95/80/4 83/99/25
f 81/84/10 94/77/3 93/100/26
f 87/85/11 105/101/28 99/102/27
f 94/77/3 105/101/28 93/100/26
f 96/83/9 101/103/5 89/78/24
f 85/97/14 102/104/30 90/82/8
f 88/76/2 106/105/31 94/77/3
f 86/92/18 103/106/36 98/107/32
f 90/82/8 108/108/29 96/83/9
f 85/88/14 98/107/32 97/109/33
f 88/76/2 107/79/6 100/110/34
f 87/85/11 104/111/35 92/94/20
f 92/94/20 103/106/36 91/91/17
f 118/112/37 124/113/38 112/114/39
f 143/115/40 125/116/41 131/117/42
f 120/118/43 126/119/44 114/120/45
f 123/121/46 117/122/47 111/123/48
f 121/124/49 110/125/50 109/126/51
f 112/114/39 131/117/42 119/127/52
f 110/125/50 127/128/56 115/129/54
f 116/130/55 123/121/46 111/123/48
f 127/128/56 116/130/55 115/129/54
f 114/120/45 121/131/49 109/132/51
f 113/133/57 132/134/58 120/118/43
f 131/117/42 113/133/57 119/127/52
f 117/122/47 130/135/59 118/112/37
f 123/121/46 141/136/62 129/137/61
f 141/136/62 130/135/59 129/137/61
f 137/138/63 132/134/58 125/116/41
f 138/139/64 121/131/49 126/119/44
f 142/140/65 124/113/38 130/135/59
f 122/141/53 139/142/70 127/128/56
f 144/143/67 126/119/44 132/134/58
f 121/124/49 134/144/66 122/141/53
f 124/113/38 143/115/40 131/117/42
f 140/145/71 123/121/46 128/146/69
f 139/142/70 128/146/69 127/128/56
f 114/120/45 73/147/15 78/96/22
f 77/98/23 120/118/43 84/81/7
f 76/90/16 119/127/52 83/99/25
f 81/84/10 118/112/37 82/75/1
f 80/93/19 111/123/48 75/86/12
f 74/87/13 115/129/54 79/95/21
f 73/147/15 110/125/50 74/87/13
f 84/81/7 114/120/45 78/96/22
f 79/95/21 116/130/55 80/93/19
f 75/86/12 117/122/47 81/84/10
f 82/75/1 112/114/39 76/90/16
f 83/99/25 113/133/57 77/98/23
f 148/148/16 166/149/3 154/150/1
f 167/151/4 173/152/5 179/153/6
f 150/154/22 168/155/9 156/156/7
f 153/157/10 159/158/11 147/159/12
f 146/160/13 157/161/14 145/162/15
f 155/163/25 160/164/2 148/148/16
f 146/160/13 163/165/17 158/166/18
f 152/167/19 159/158/11 164/168/20
f 152/167/19 163/165/17 151/169/21
f 150/154/22 157/170/14 162/171/8
f 149/172/23 168/155/9 161/173/24
f 155/163/25 161/173/24 167/151/4
f 154/150/1 165/174/26 153/157/10
f 165/174/26 171/175/27 159/158/11
f 166/149/3 177/176/28 165/174/26
f 161/173/24 180/177/29 173/152/5
f 157/170/14 174/178/30 162/171/8
f 166/149/3 172/179/34 178/180/31
f 158/166/18 175/181/36 170/182/32
f 162/171/8 180/177/29 168/155/9
f 157/161/14 170/182/32 169/183/33
f 160/164/2 179/153/6 172/179/34
f 164/168/20 171/175/27 176/184/35
f 164/168/20 175/181/36 163/165/17
f 202/185/59 184/186/39 190/187/37
f 203/188/42 209/189/63 197/190/41
f 204/191/58 186/192/45 192/193/43
f 195/194/46 189/195/47 183/196/48
f 193/197/49 182/198/50 181/199/51
f 184/186/39 203/188/42 191/200/52
f 182/198/50 199/201/56 187/202/54
f 200/203/69 183/196/48 188/204/55
f 199/201/56 188/204/55 187/202/54
f 186/192/45 193/205/49 181/206/51
f 185/207/57 204/191/58 192/193/43
f 191/200/52 197/190/41 185/207/57
f 201/208/61 190/187/37 189/195/47
f 207/209/60 201/208/61 195/194/46
f 201/208/61 214/210/65 202/185/59
f 197/190/41 216/211/67 204/191/58
f 210/212/64 193/205/49 198/213/44
f 202/185/59 208/214/72 196/215/38
f 194/216/53 211/217/70 199/201/56
f 216/211/67 198/213/44 204/191/58
f 193/197/49 206/218/66 194/216/53
f 196/215/38 215/219/40 203/188/42
f 200/203/69 207/209/60 195/194/46
f 211/217/70 200/203/69 199/201/56
f 186/192/45 145/220/15 150/154/22
f 149/172/23 192/193/43 156/156/7
f 148/148/16 191/200/52 155/163/25
f 153/157/10 190/187/37 154/150/1
f 152/167/19 183/196/48 147/159/12
f 146/160/13 187/202/54 151/169/21
f 145/220/15 182/198/50 146/160/13
f 156/156/7 186/192/45 150/154/22
f 151/169/21 188/204/55 152/167/19
f 147/159/12 189/195/47 153/157/10
f 154/150/1 184/186/39 148/148/16
f 155/163/25 185/207/57 149/172/23
f 10/1/1 4/16/16 16/2/2
f 23/4/4 17/25/24 29/5/5
f 12/7/7 6/22/22 18/8/8
f 9/10/10 21/27/26 15/11/11
f 2/13/13 14/18/18 13/14/14
f 4/16/16 11/26/25 23/4/4
f 2/13/13 7/21/21 19/17/17
f 8/19/19 3/12/12 15/11/11
f 8/19/19 20/20/20 19/17/17
f 6/22/22 1/74/15 13/23/14
f 5/24/23 12/7/7 24/9/9
f 11/26/25 5/24/23 17/25/24
f 9/10/10 10/1/1 22/3/3
f 21/27/26 33/29/28 27/28/27
f 22/3/3 34/32/31 33/29/28
f 17/25/24 24/9/9 36/30/29
f 13/23/14 25/221/33 30/31/30
f 16/2/2 28/35/34 34/32/31
f 19/17/17 31/37/36 26/33/32
f 18/8/8 30/31/30 36/30/29
f 14/18/18 26/33/32 25/34/33
f 16/2/2 23/4/4 35/6/6
f 20/20/20 15/11/11 27/28/27
f 20/20/20 32/36/35 31/37/36
f 46/38/37 58/62/59 52/39/38
f 71/41/40 65/66/63 53/42/41
f 48/44/43 60/61/58 54/45/44
f 51/47/46 57/64/61 45/48/47
f 49/50/49 50/54/53 38/51/50
f 52/39/38 59/43/42 47/53/52
f 50/54/53 55/57/56 43/55/54
f 44/56/55 56/72/69 51/47/46
f 55/57/56 56/72/69 44/56/55
f 42/46/45 54/45/44 49/58/49
f 41/60/57 53/42/41 60/61/58
f 47/53/52 59/43/42 53/42/41
f 45/48/47 57/64/61 58/62/59
f 63/63/60 69/65/62 57/64/61
f 69/65/62 70/68/65 58/62/59
f 65/66/63 72/70/67 60/61/58
f 66/67/64 61/222/68 49/58/49
f 70/68/65 64/223/72 52/39/38
f 62/69/66 67/73/70 55/57/56
f 72/70/67 66/67/64 54/45/44
f 61/71/68 62/69/66 50/54/53
f 52/39/38 64/223/72 71/41/40
f 56/72/69 68/224/71 63/63/60
f 67/73/70 68/224/71 56/72/69
f 42/46/45 37/59/51 1/74/15
f 5/24/23 41/60/57 48/44/43
f 4/16/16 40/40/39 47/53/52
f 9/10/10 45/48/47 46/38/37
f 8/19/19 44/56/55 39/49/48
f 2/13/13 38/51/50 43/55/54
f 1/74/15 37/52/51 38/51/50
f 12/7/7 48/44/43 42/46/45
f 7/21/21 43/55/54 44/56/55
f 3/12/12 39/49/48 45/48/47
f 10/1/1 46/38/37 40/40/39
f 11/26/25 47/53/52 41/60/57
f 82/75/1 76/90/16 88/76/2
f 89/78/24 101/103/5 107/79/6
f 84/81/7 78/96/22 90/82/8
f 81/84/10 93/100/26 87/85/11
f 74/87/13 86/92/18 85/88/14
f 76/90/16 83/99/25 95/80/4
f 74/87/13 79/95/21 91/91/17
f 80/93/19 75/86/12 87/85/11
f 80/93/19 92/94/20 91/91/17
f 78/96/22 73/147/15 85/97/14
f 77/98/23 84/81/7 96/83/9
f 77/98/23 89/78/24 95/80/4
f 81/84/10 82/75/1 94/77/3
f 87/85/11 93/100/26 105/101/28
f 94/77/3 106/105/31 105/101/28
f 96/83/9 108/108/29 101/103/5
f 85/97/14 97/225/33 102/104/30
f 88/76/2 100/110/34 106/105/31
f 86/92/18 91/91/17 103/106/36
f 90/82/8 102/104/30 108/108/29
f 85/88/14 86/92/18 98/107/32
f 88/76/2 95/80/4 107/79/6
f 87/85/11 99/102/27 104/111/35
f 92/94/20 104/111/35 103/106/36
f 118/112/37 130/135/59 124/113/38
f 143/115/40 137/138/63 125/116/41
f 120/118/43 132/134/58 126/119/44
f 123/121/46 129/137/61 117/122/47
f 121/124/49 122/141/53 110/125/50
f 112/114/39 124/113/38 131/117/42
f 110/125/50 122/141/53 127/128/56
f 116/130/55 128/146/69 123/121/46
f 127/128/56 128/146/69 116/130/55
f 114/120/45 126/119/44 121/131/49
f 113/133/57 125/116/41 132/134/58
f 131/117/42 125/116/41 113/133/57
f 117/122/47 129/137/61 130/135/59
f 123/121/46 135/226/60 141/136/62
f 141/136/62 142/140/65 130/135/59
f 137/138/63 144/143/67 132/134/58
f 138/139/64 133/227/68 121/131/49
f 142/140/65 136/228/72 124/113/38
f 122/141/53 134/144/66 139/142/70
f 144/143/67 138/139/64 126/119/44
f 121/124/49 133/229/68 134/144/66
f 124/113/38 136/228/72 143/115/40
f 140/145/71 135/226/60 123/121/46
f 139/142/70 140/145/71 128/146/69
f 114/120/45 109/132/51 73/147/15
f 77/98/23 113/133/57 120/118/43
f 76/90/16 112/114/39 119/127/52
f 81/84/10 117/122/47 118/112/37
f 80/93/19 116/130/55 111/123/48
f 74/87/13 110/125/50 115/129/54
f 73/147/15 109/126/51 110/125/50
f 84/81/7 120/118/43 114/120/45
f 79/95/21 115/129/54 116/130/55
f 75/86/12 111/123/48 117/122/47
f 82/75/1 118/112/37 112/114/39
f 83/99/25 119/127/52 113/133/57
f 148/148/16 160/164/2 166/149/3
f 167/151/4 161/173/24 173/152/5
f 150/154/22 162/171/8 168/155/9
f 153/157/10 165/174/26 159/158/11
f 146/160/13 158/166/18 157/161/14
f 155/163/25 167/151/4 160/164/2
f 146/160/13 151/169/21 163/165/17
f 152/167/19 147/159/12 159/158/11
f 152/167/19 164/168/20 163/165/17
f 150/154/22 145/220/15 157/170/14
f 149/172/23 156/156/7 168/155/9
f 155/163/25 149/172/23 161/173/24
f 154/150/1 166/149/3 165/174/26
f 165/174/26 177/176/28 171/175/27
f 166/149/3 178/180/31 177/176/28
f 161/173/24 168/155/9 180/177/29
f 157/170/14 169/230/33 174/178/30
f 166/149/3 160/164/2 172/179/34
f 158/166/18 163/165/17 175/181/36
f 162/171/8 174/178/30 180/177/29
f 157/161/14 158/166/18 170/182/32
f 160/164/2 167/151/4 179/153/6
f 164/168/20 159/158/11 171/175/27
f 164/168/20 176/184/35 175/181/36
f 202/185/59 196/215/38 184/186/39
f 203/188/42 215/219/40 209/189/63
f 204/191/58 198/213/44 186/192/45
f 195/194/46 201/208/61 189/195/47
f 193/197/49 194/216/53 182/198/50
f 184/186/39 196/215/38 203/188/42
f 182/198/50 194/216/53 199/201/56
f 200/203/69 195/194/46 183/196/48
f 199/201/56 200/203/69 188/204/55
f 186/192/45 198/213/44 193/205/49
f 185/207/57 197/190/41 204/191/58
f 191/200/52 203/188/42 197/190/41
f 201/208/61 202/185/59 190/187/37
f 207/209/60 213/231/62 201/208/61
f 201/208/61 213/231/62 214/210/65
f 197/190/41 209/189/63 216/211/67
f 210/212/64 205/232/68 193/205/49
f 202/185/59 214/210/65 208/214/72
f 194/216/53 206/218/66 211/217/70
f 216/211/67 210/212/64 198/213/44
f 193/197/49 205/233/68 206/218/66
f 196/215/38 208/214/72 215/219/40
f 200/203/69 212/234/71 207/209/60
f 211/217/70 212/234/71 200/203/69
f 186/192/45 181/206/51 145/220/15
f 149/172/23 185/207/57 192/193/43
f 148/148/16 184/186/39 191/200/52
f 153/157/10 189/195/47 190/187/37
f 152/167/19 188/204/55 183/196/48
f 146/160/13 182/198/50 187/202/54
f 145/220/15 181/199/51 182/198/50
f 156/156/7 192/193/43 186/192/45
f 151/169/21 187/202/54 188/204/55
f 147/159/12 183/196/48 189/195/47
f 154/150/1 190/187/37 184/186/39
f 155/163/25 191/200/52 185/207/57
