# Blender v3.0.0 OBJ File: ''
# www.blender.org
o Cube.050_Cube.070
v -5.000000 0.000000 3.000000
v -5.000000 9.000000 3.000000
v -5.000000 0.000000 -3.000000
v -5.000000 9.000000 -3.000000
v 5.000000 0.000000 3.000000
v 5.000000 9.000000 3.000000
v 5.000000 0.000000 -3.000000
v 5.000000 9.000000 -3.000000
v -5.000000 2.750000 -2.250000
v -5.000000 3.000000 -2.250000
v -5.000000 2.750000 -3.000000
v -5.000000 3.000000 -3.000000
v 5.000000 2.750000 -2.250000
v 5.000000 3.000000 -2.250000
v 5.000000 2.750000 -3.000000
v 5.000000 3.000000 -3.000000
v -5.000000 2.750000 3.000000
v -5.000000 3.000000 3.000000
v -5.000000 2.750000 2.250000
v -5.000000 3.000000 2.250000
v 5.000000 2.750000 3.000000
v 5.000000 3.000000 3.000000
v 5.000000 2.750000 2.250000
v 5.000000 3.000000 2.250000
v -5.000000 5.750000 -2.250000
v -5.000000 6.000000 -2.250000
v -5.000000 5.750000 -3.000000
v -5.000000 6.000000 -3.000000
v 5.000000 5.750000 -2.250000
v 5.000000 6.000000 -2.250000
v 5.000000 5.750000 -3.000000
v 5.000000 6.000000 -3.000000
v -5.000000 5.750000 3.000000
v -5.000000 6.000000 3.000000
v -5.000000 5.750000 2.250000
v -5.000000 6.000000 2.250000
v 5.000000 5.750000 3.000000
v 5.000000 6.000000 3.000000
v 5.000000 5.750000 2.250000
v 5.000000 6.000000 2.250000
v -5.125000 0.000000 3.000000
v -5.125000 9.000000 3.000000
v -5.125000 0.000000 -3.000000
v -5.125000 9.000000 -3.000000
v -4.875000 0.000000 3.000000
v -4.875000 9.000000 3.000000
v -4.875000 0.000000 -3.000000
v -4.875000 9.000000 -3.000000
v -5.125000 0.000000 1.000000
v -4.875000 0.000000 1.000000
v -5.125000 0.019215 1.195090
v -4.875000 0.019215 1.195090
v -5.125000 0.076120 1.382683
v -4.875000 0.076120 1.382683
v -5.125000 0.168530 1.555570
v -4.875000 0.168530 1.555570
v -5.125000 0.292893 1.707107
v -4.875000 0.292893 1.707107
v -5.125000 0.444430 1.831470
v -4.875000 0.444430 1.831470
v -5.125000 0.617316 1.923880
v -4.875000 0.617317 1.923880
v -5.125000 0.804910 1.980785
v -4.875000 0.804910 1.980785
v -5.125000 1.000000 2.000000
v -4.875000 1.000000 2.000000
v -5.125000 1.000000 -2.000000
v -4.875000 1.000000 -2.000000
v -5.125000 0.804910 -1.980785
v -4.875000 0.804910 -1.980785
v -5.125000 0.617316 -1.923880
v -4.875000 0.617317 -1.923880
v -5.125000 0.444429 -1.831470
v -4.875000 0.444430 -1.831470
v -5.125000 0.292893 -1.707107
v -4.875000 0.292893 -1.707107
v -5.125000 0.168530 -1.555570
v -4.875000 0.168530 -1.555570
v -5.125000 0.076120 -1.382683
v -4.875000 0.076120 -1.382683
v -5.125000 0.019215 -1.195090
v -4.875000 0.019215 -1.195090
v -5.125000 0.000000 -1.000000
v -4.875000 0.000000 -1.000000
v -5.125000 9.000000 -2.000000
v -4.875000 9.000000 -2.000000
v -4.875000 9.000000 2.000000
v -5.125000 9.000000 2.000000
v -5.125000 0.000000 -2.000000
v -4.875000 0.000000 -2.000000
v -5.125000 0.000000 2.000000
v -4.875000 0.000000 2.000000
vt 0.625000 0.250000
vt 0.375000 0.500000
vt 0.375000 0.250000
vt 0.625000 0.750000
vt 0.375000 1.000000
vt 0.375000 0.750000
vt 0.125000 0.750000
vt 0.125000 0.500000
vt 0.875000 0.500000
vt 0.625000 0.500000
vt 0.625000 0.750000
vt 0.375000 1.000000
vt 0.375000 0.750000
vt 0.375000 0.500000
vt 0.125000 0.750000
vt 0.125000 0.500000
vt 0.875000 0.500000
vt 0.625000 0.500000
vt 0.625000 0.250000
vt 0.375000 0.500000
vt 0.375000 0.250000
vt 0.125000 0.750000
vt 0.125000 0.500000
vt 0.875000 0.500000
vt 0.625000 0.750000
vt 0.625000 0.500000
vt 0.625000 0.750000
vt 0.375000 1.000000
vt 0.375000 0.750000
vt 0.375000 0.500000
vt 0.125000 0.750000
vt 0.125000 0.500000
vt 0.875000 0.500000
vt 0.625000 0.500000
vt 0.625000 0.250000
vt 0.375000 0.500000
vt 0.375000 0.250000
vt 0.125000 0.750000
vt 0.125000 0.500000
vt 0.875000 0.500000
vt 0.625000 0.750000
vt 0.625000 0.500000
vt 0.750000 1.000000
vt 0.718750 0.500000
vt 0.750000 0.500000
vt 0.718750 1.000000
vt 0.687500 0.500000
vt 0.687500 1.000000
vt 0.656250 0.500000
vt 0.656250 1.000000
vt 0.625000 0.500000
vt 0.625000 1.000000
vt 0.593750 0.500000
vt 0.593750 1.000000
vt 0.562500 0.500000
vt 0.562500 1.000000
vt 0.531250 0.500000
vt 0.531250 1.000000
vt 0.500000 0.500000
vt 1.000000 1.000000
vt 0.968750 0.500000
vt 1.000000 0.500000
vt 0.937500 1.000000
vt 0.937500 0.500000
vt 0.906250 1.000000
vt 0.906250 0.500000
vt 0.875000 1.000000
vt 0.875000 0.500000
vt 0.843750 0.500000
vt 0.843750 1.000000
vt 0.812500 0.500000
vt 0.812500 1.000000
vt 0.781250 0.500000
vt 0.781250 1.000000
vt 0.750000 0.500000
vt 0.000000 0.000000
vt 0.500000 1.000000
vt 0.000000 0.000000
vt 0.125000 0.625000
vt 0.125000 0.687500
vt 0.375000 0.687500
vt 0.000000 0.000000
vt 0.000000 0.000000
vt 0.375000 0.625000
vt 0.000000 0.000000
vt 0.000000 0.000000
vt 0.000000 0.000000
vt 0.625000 1.000000
vt 0.875000 0.750000
vt 0.625000 1.000000
vt 0.875000 0.750000
vt 0.375000 0.750000
vt 0.875000 0.750000
vt 0.625000 1.000000
vt 0.875000 0.750000
vt 0.375000 0.750000
vt 0.875000 0.750000
vt 0.968750 1.000000
vt 0.750000 1.000000
vt 0.000000 0.000000
vt 0.000000 0.000000
vt 0.000000 0.000000
vt 0.000000 0.000000
vt 0.000000 0.000000
vn 0.0000 0.0000 -1.0000
vn 0.0000 0.0000 1.0000
vn 0.0000 -1.0000 0.0000
vn 0.0000 1.0000 0.0000
vn 0.0000 -0.9952 0.0980
vn 0.0000 -0.9569 0.2903
vn 0.0000 -0.8819 0.4714
vn 0.0000 -0.7730 0.6344
vn 0.0000 -0.6344 0.7730
vn 0.0000 -0.4714 0.8819
vn 0.0000 -0.2903 0.9569
vn 0.0000 -0.0980 0.9952
vn 0.0000 -0.0980 -0.9952
vn -0.0000 -0.2903 -0.9569
vn 0.0000 -0.4714 -0.8819
vn 0.0000 -0.6344 -0.7730
vn 0.0000 -0.7730 -0.6344
vn 0.0000 -0.8819 -0.4714
vn 0.0000 -0.9569 -0.2903
vn 0.0000 -0.9952 -0.0980
vn 1.0000 0.0000 0.0000
vn -1.0000 0.0000 0.0000
s off
f 4/1/1 7/2/1 3/3/1
f 6/4/2 1/5/2 5/6/2
f 7/2/3 1/7/3 3/8/3
f 4/9/4 6/4/4 8/10/4
f 14/11/2 9/12/2 13/13/2
f 15/14/3 9/15/3 11/16/3
f 12/17/4 14/11/4 16/18/4
f 20/19/1 23/20/1 19/21/1
f 23/20/3 17/22/3 19/23/3
f 20/24/4 22/25/4 24/26/4
f 30/27/2 25/28/2 29/29/2
f 31/30/3 25/31/3 27/32/3
f 28/33/4 30/27/4 32/34/4
f 36/35/1 39/36/1 35/37/1
f 39/36/3 33/38/3 35/39/3
f 36/40/4 38/41/4 40/42/4
f 50/43/5 51/44/5 49/45/5
f 52/46/6 53/47/6 51/44/6
f 54/48/7 55/49/7 53/47/7
f 56/50/8 57/51/8 55/49/8
f 58/52/9 59/53/9 57/51/9
f 60/54/10 61/55/10 59/53/10
f 62/56/11 63/57/11 61/55/11
f 64/58/12 65/59/12 63/57/12
f 68/60/13 69/61/13 67/62/13
f 69/61/14 72/63/14 71/64/14
f 71/64/15 74/65/15 73/66/15
f 73/66/16 76/67/16 75/68/16
f 76/67/17 77/69/17 75/68/17
f 78/70/18 79/71/18 77/69/18
f 80/72/19 81/73/19 79/71/19
f 82/74/20 83/75/20 81/73/20
f 87/76/2 65/59/2 66/77/2
f 67/62/1 86/78/1 68/60/1
f 75/68/21 77/69/21 89/79/21
f 57/51/21 59/53/21 91/80/21
f 92/81/22 60/54/22 58/52/22
f 68/60/22 86/78/22 48/82/22
f 67/62/21 89/79/21 43/83/21
f 90/84/22 78/70/22 76/67/22
f 65/59/21 42/85/21 41/86/21
f 66/77/22 92/81/22 45/87/22
f 4/1/1 8/10/1 7/2/1
f 6/4/2 2/88/2 1/5/2
f 7/2/3 5/6/3 1/7/3
f 4/9/4 2/89/4 6/4/4
f 14/11/2 10/90/2 9/12/2
f 15/14/3 13/13/3 9/15/3
f 12/17/4 10/91/4 14/11/4
f 20/19/1 24/26/1 23/20/1
f 23/20/3 21/92/3 17/22/3
f 20/24/4 18/93/4 22/25/4
f 30/27/2 26/94/2 25/28/2
f 31/30/3 29/29/3 25/31/3
f 28/33/4 26/95/4 30/27/4
f 36/35/1 40/42/1 39/36/1
f 39/36/3 37/96/3 33/38/3
f 36/40/4 34/97/4 38/41/4
f 50/43/5 52/46/5 51/44/5
f 52/46/6 54/48/6 53/47/6
f 54/48/7 56/50/7 55/49/7
f 56/50/8 58/52/8 57/51/8
f 58/52/9 60/54/9 59/53/9
f 60/54/10 62/56/10 61/55/10
f 62/56/11 64/58/11 63/57/11
f 64/58/12 66/77/12 65/59/12
f 68/60/13 70/98/13 69/61/13
f 69/61/14 70/98/14 72/63/14
f 71/64/15 72/63/15 74/65/15
f 73/66/16 74/65/16 76/67/16
f 76/67/17 78/70/17 77/69/17
f 78/70/18 80/72/18 79/71/18
f 80/72/19 82/74/19 81/73/19
f 82/74/20 84/99/20 83/75/20
f 87/76/2 88/100/2 65/59/2
f 67/62/1 85/101/1 86/78/1
f 89/79/21 67/62/21 69/61/21
f 89/79/21 69/61/21 71/64/21
f 81/73/21 83/75/21 89/79/21
f 79/71/21 81/73/21 89/79/21
f 89/79/21 71/64/21 73/66/21
f 89/79/21 73/66/21 75/68/21
f 77/69/21 79/71/21 89/79/21
f 91/80/21 49/45/21 51/44/21
f 91/80/21 51/44/21 53/47/21
f 63/57/21 65/59/21 91/80/21
f 61/55/21 63/57/21 91/80/21
f 91/80/21 53/47/21 55/49/21
f 91/80/21 55/49/21 57/51/21
f 59/53/21 61/55/21 91/80/21
f 52/46/22 50/43/22 92/81/22
f 92/81/22 66/77/22 64/58/22
f 92/81/22 64/58/22 62/56/22
f 54/48/22 52/46/22 92/81/22
f 56/50/22 54/48/22 92/81/22
f 92/81/22 62/56/22 60/54/22
f 58/52/22 56/50/22 92/81/22
f 48/82/22 47/102/22 68/60/22
f 47/102/22 90/84/22 68/60/22
f 43/83/21 44/103/21 67/62/21
f 44/103/21 85/101/21 67/62/21
f 70/98/22 68/60/22 90/84/22
f 90/84/22 84/99/22 82/74/22
f 90/84/22 82/74/22 80/72/22
f 72/63/22 70/98/22 90/84/22
f 74/65/22 72/63/22 90/84/22
f 90/84/22 80/72/22 78/70/22
f 76/67/22 74/65/22 90/84/22
f 41/86/21 91/80/21 65/59/21
f 65/59/21 88/100/21 42/85/21
f 45/87/22 46/104/22 66/77/22
f 46/104/22 87/76/22 66/77/22
